# xmcd
#
# Track frame offsets:
#	150
#	11238
#	30325
#	50265
#	63849
#	95017
#	109218
#	129325
#	161844
#	177914
#	218069
#	272564
#	302356
#	317754
#
# Disc length: 4584 seconds
#
# Revision: 1
# Processed by: cddbd v1.5.2PL0 Copyright (c) Steve Scherf et al.
# Submitted via: EasyCDDAExtractor 9.0.0.1
#
DISCID=b611e60e
DTITLE=Judas Priest - Coliseum Arena Seattle 17-10-79 
DYEAR=1979
DGENRE=Heavy Metal
TTITLE0=Hell Bent For Leather
TTITLE1=Delivering The Goods
TTITLE2=Running Wild
TTITLE3=The Ripper
TTITLE4=Beyond The Realms Of Death
TTITLE5=Diamonds and Rust
TTITLE6=White Heat, Red Hot
TTITLE7=Sinner
TTITLE8=The Green Manalishi
TTITLE9=Victim Of Changes
TTITLE10=Genocide
TTITLE11=Starbreaker
TTITLE12=Take On The World
TTITLE13=Tyrant
EXTD=
EXTT0=
EXTT1=
EXTT2=
EXTT3=
EXTT4=
EXTT5=
EXTT6=
EXTT7=
EXTT8=
EXTT9=
EXTT10=
EXTT11=
EXTT12=
EXTT13=
PLAYORDER=
